<?xml version="1.0" encoding="UTF-8"?>
<svg id="OBJECTS" xmlns="http://www.w3.org/2000/svg" viewBox="0 0 426.3 426.3">
  <defs>
    <style>
      .cls-1 {
        fill: gray;
      }
    </style>
  </defs>
  <path class="cls-1" d="m414.52,426.3c-1.25,0-2.5-.2-3.72-.61l-88.49-29.5c-32.98,19.71-70.6,30.1-109.16,30.1C95.62,426.3,0,330.68,0,213.15S95.62,0,213.15,0s213.15,95.62,213.15,213.15c0,38.56-10.39,76.17-30.1,109.16l29.49,88.49c1.41,4.23.31,8.9-2.84,12.05-2.24,2.25-5.25,3.45-8.33,3.45ZM213.15,23.55C108.61,23.55,23.55,108.61,23.55,213.15s85.05,189.6,189.6,189.6c35.98,0,71.02-10.17,101.36-29.4,2.98-1.9,6.68-2.35,10.03-1.23l71.36,23.79-23.78-71.36c-1.12-3.36-.67-7.04,1.23-10.03,19.23-30.34,29.4-65.39,29.4-101.36,0-104.54-85.05-189.6-189.59-189.6Z"/>
</svg>