<?xml version="1.0" encoding="UTF-8"?>
<svg id="OBJECTS" xmlns="http://www.w3.org/2000/svg" viewBox="0 0 470.01 435.34">
  <defs>
    <style>
      .cls-1 {
        fill: gray;
      }
    </style>
  </defs>
  <path class="cls-1" d="m235,435.34c-3.35,0-6.7-1.28-9.26-3.84L41.91,247.67C14.88,220.64,0,184.71,0,146.49S14.88,72.34,41.91,45.31C94.72-7.5,178.84-10.33,235,36.82c56.16-47.14,140.29-44.32,193.09,8.49,27.03,27.02,41.91,62.96,41.91,101.18s-14.88,74.15-41.91,101.18l-183.83,183.83c-2.56,2.56-5.91,3.84-9.26,3.84ZM143.09,29.66c-29.94,0-59.86,11.39-82.65,34.18-45.57,45.57-45.57,119.73,0,165.31l174.57,174.57,174.57-174.57c45.57-45.57,45.57-119.73,0-165.31-45.58-45.57-119.73-45.57-165.31,0-5.12,5.12-13.41,5.12-18.52,0-22.79-22.78-52.72-34.18-82.65-34.18Z"/>
</svg>