<?xml version="1.0" encoding="UTF-8"?>
<svg id="OBJECTS" xmlns="http://www.w3.org/2000/svg" viewBox="0 0 304.75 333.3">
  <defs>
    <style>
      .cls-1 {
        fill: gray;
      }
    </style>
  </defs>
  <g>
    <path class="cls-1" d="m304.75,152.38c0,63.53-39,117.92-94.27,140.8v-33.78c39.67-20.66,66.74-62.19,66.74-109.97,0-68.44-55.53-123.97-123.97-123.97S29.29,80.99,29.29,149.43c0,49.74,29.34,92.66,71.64,112.4v33.88C42.15,274.59,0,218.44,0,152.38,0,68.18,68.23,0,152.38,0s152.38,68.18,152.38,152.38Z"/>
    <path class="cls-1" d="m155.28,225.58c-11.8,0-21.37-9.57-21.37-21.37s9.57-21.37,21.37-21.37,21.37,9.57,21.37,21.37-9.57,21.37-21.37,21.37Z"/>
    <path class="cls-1" d="m155.28,283.65c-8.44,0-15.29-6.85-15.29-15.29s6.85-15.29,15.29-15.29,15.29,6.85,15.29,15.29-6.85,15.29-15.29,15.29Z"/>
    <circle class="cls-1" cx="155.28" cy="321.87" r="11.43"/>
    <path class="cls-1" d="m103.81,156.17v-22.86c0-27.35,22.17-49.52,49.52-49.52h0c27.35,0,49.52,22.17,49.52,49.52v22.86h-99.04Z"/>
  </g>
  <path class="cls-1" d="m277.22,149.43c0,47.78-27.07,89.31-66.74,109.97v-24.59c25.88-18.29,42.82-48.4,42.82-82.44,0-55.68-45.25-100.98-100.93-100.98s-100.93,45.3-100.93,100.98c0,36.88,19.89,69.11,49.48,86.72v22.73c-42.3-19.73-71.64-62.65-71.64-112.4,0-68.44,55.47-123.97,123.97-123.97s123.97,55.53,123.97,123.97Z"/>
</svg>