<?xml version="1.0" encoding="UTF-8"?>
<svg id="Capa_3" data-name="Capa 3" xmlns="http://www.w3.org/2000/svg" viewBox="0 0 1250 750">
  <defs>
    <style>
      .cls-1 {
        fill: gray;
      }
    </style>
  </defs>
  <path class="cls-1" d="m942.78,662.62l-199.64-199.64c83.1-101.94,77.16-252.73-17.8-347.7-49.07-49.06-114.31-76.08-183.69-76.08s-134.62,27.01-183.69,76.08c-101.28,101.29-101.28,266.11,0,367.39,49.07,49.07,114.31,76.09,183.69,76.09,60.47,0,117.78-20.54,164-58.3l199.64,199.64c5.18,5.17,11.96,7.76,18.75,7.76s13.57-2.59,18.75-7.76c10.35-10.35,10.35-27.14,0-37.49Zm-547.33-217.44c-80.62-80.61-80.62-211.8,0-292.41,39.06-39.05,90.98-60.56,146.21-60.56s107.15,21.51,146.2,60.56c80.62,80.62,80.62,211.8,0,292.41-39.06,39.06-90.98,60.57-146.2,60.57s-107.15-21.51-146.2-60.57Z"/>
  <path class="cls-1" d="m448.07,154.95c-13.3,6.14-19.1,21.89-12.96,35.18,6.14,13.3,21.9,19.07,35.18,12.96.82-.38,82.35-36.8,158.42,32.95,5.09,4.67,11.51,6.97,17.91,6.97,7.17,0,14.32-2.89,19.55-8.6,9.89-10.79,9.16-27.56-1.63-37.46-101.79-93.31-211.83-44.15-216.47-42.01Z"/>
</svg>