<?xml version="1.0" encoding="UTF-8"?>
<svg id="OBJECTS" xmlns="http://www.w3.org/2000/svg" viewBox="0 0 470.01 457.02">
  <defs>
    <style>
      .cls-1 {
        fill: gray;
      }
    </style>
  </defs>
  <path class="cls-1" d="m226.71,223.54c-61.63,0-111.77-50.14-111.77-111.77S165.08,0,226.71,0s111.77,50.14,111.77,111.77-50.14,111.77-111.77,111.77Zm0-200.13c-48.72,0-88.36,39.64-88.36,88.36s39.64,88.36,88.36,88.36,88.36-39.64,88.36-88.36-39.64-88.36-88.36-88.36Z"/>
  <path class="cls-1" d="m426.84,457.02H26.58c-6.46,0-11.7-5.24-11.7-11.7v-100.07c0-43.24,35.18-78.41,78.42-78.41h266.84c43.24,0,78.42,35.18,78.42,78.41v100.07c0,6.47-5.24,11.7-11.7,11.7Zm-388.56-23.41h376.85v-88.36c0-30.33-24.67-55-55.01-55H93.29c-30.34,0-55.01,24.67-55.01,55v88.36Z"/>
</svg>